<?xml version="1.0" encoding="UTF-8" standalone="no"?>
<!DOCTYPE svg PUBLIC "-//W3C//DTD SVG 20010904//EN"
              "http://www.w3.org/TR/2001/REC-SVG-20010904/DTD/svg10.dtd">

<svg xmlns="http://www.w3.org/2000/svg"
     width="9.02778in" height="4.86111in"
     viewBox="0 0 650 350">
  <path id="Unnamed #1"
        fill="none" stroke="black" stroke-width="8"
        d="M 0.75,132.75
           C 0.75,132.75 17.50,124.75 17.50,124.75
             17.50,124.75 34.25,116.50 34.25,116.50
             34.25,116.50 41.25,115.25 41.25,115.25
             41.25,115.25 44.00,110.25 44.00,110.25
             44.00,110.25 41.75,101.25 41.75,101.25
             41.75,101.25 37.75,101.50 37.75,101.00
             37.75,100.50 31.50,87.50 31.50,87.50
             31.50,87.50 30.75,74.00 30.75,74.00
             30.75,74.00 32.25,67.00 32.25,67.00
             32.25,67.00 35.50,67.25 36.25,67.00
             37.00,66.75 39.00,62.25 39.25,62.00
             39.50,61.75 38.25,52.00 38.25,52.00
             38.25,52.00 39.00,41.75 39.00,41.75
             39.00,41.75 42.00,32.00 42.00,32.00
             42.00,32.00 43.75,27.75 44.00,27.50
             44.25,27.25 52.50,21.00 52.50,21.00
             52.50,21.00 63.00,16.25 63.00,16.25
             63.00,16.25 75.75,12.00 75.75,12.00
             75.75,12.00 87.25,12.00 87.25,12.00
             87.25,12.00 95.75,13.50 95.75,13.50
             95.75,13.50 105.00,17.50 105.00,17.50
             105.00,17.50 113.50,23.00 113.75,23.25
             114.00,23.50 120.25,32.00 120.25,32.00
             120.25,32.00 121.00,44.00 121.00,44.00
             121.00,44.00 123.50,65.25 123.25,65.25
             123.00,65.25 121.25,77.75 121.25,77.75
             121.25,77.75 118.50,93.50 118.50,93.50
             118.50,93.50 116.75,98.00 116.75,98.00
             116.75,98.00 116.25,105.25 116.00,105.50
             115.75,105.75 112.75,114.25 112.75,114.25
             112.75,114.25 106.25,122.75 106.25,122.75
             106.25,122.75 100.00,130.50 100.00,130.50
             100.00,130.50 97.50,133.00 97.50,133.00
             97.50,133.00 102.00,135.50 102.00,135.50
             102.00,135.50 110.50,137.50 110.50,137.50
             110.50,137.50 123.25,145.00 123.25,145.00
             123.25,145.00 131.75,151.75 131.75,151.75
             131.75,151.75 143.00,164.00 143.00,164.00
             143.00,164.00 146.50,175.25 146.50,175.25
             146.50,175.25 148.25,182.75 148.25,182.75
             148.25,182.75 148.75,184.25 148.75,184.25
             148.75,184.25 156.00,179.75 156.00,179.75
             156.00,179.75 164.25,180.25 164.25,180.25
             164.25,180.25 170.00,182.50 170.00,182.50
             170.00,182.50 172.50,191.50 172.50,191.50
             172.50,191.50 178.50,205.00 178.50,205.00
             178.50,205.00 184.00,215.00 184.00,215.00
             184.00,215.00 193.25,224.00 193.25,224.00
             193.25,224.00 202.00,228.75 202.00,228.75
             202.00,228.75 208.75,233.00 208.75,233.00
             208.75,233.00 212.00,239.50 212.00,239.50
             212.00,239.50 212.00,243.75 212.00,243.75
             212.00,243.75 217.75,244.00 217.75,244.00
             217.75,244.00 230.25,243.25 230.25,243.25
             230.25,243.25 235.00,241.75 235.00,241.75
             235.00,241.75 239.25,237.25 239.25,237.25
             239.25,237.25 241.25,235.00 241.00,233.00
             240.75,231.00 240.75,225.00 240.75,225.00
             240.75,225.00 237.75,220.50 237.75,220.50
             237.75,220.50 235.50,213.00 235.50,213.00
             235.50,213.00 237.50,207.25 237.50,207.25
             237.50,207.25 241.50,206.75 241.50,206.75
             241.50,206.75 241.75,202.75 241.75,202.00
             241.75,201.25 245.25,189.00 245.25,189.00
             245.25,189.00 248.75,182.00 249.00,182.00
             249.25,182.00 260.75,178.00 260.75,178.00
             260.75,178.00 271.75,174.00 271.75,174.00
             271.75,174.00 280.25,174.50 280.25,174.50
             280.25,174.50 291.75,178.00 291.75,178.00
             291.75,178.00 297.25,181.75 297.25,181.75
             297.25,181.75 296.75,173.25 296.75,173.25
             296.75,173.25 297.00,164.00 297.00,164.00
             297.00,164.00 293.75,158.25 293.75,158.25
             293.75,158.25 291.50,152.00 291.50,152.00
             291.50,152.00 293.75,147.75 293.75,147.75
             293.75,147.75 298.00,139.25 298.00,139.25
             298.00,139.25 301.75,128.75 301.75,128.75
             301.75,128.75 304.25,120.75 304.25,120.75
             304.25,120.75 308.75,115.50 309.25,115.50
             309.75,115.50 321.25,113.00 321.25,113.00
             321.25,113.00 330.50,115.00 330.50,115.00
             330.50,115.00 336.00,118.75 336.00,118.75
             336.00,118.75 342.75,120.25 342.75,120.25
             342.75,120.25 346.75,127.25 346.75,127.25
             346.75,127.25 352.50,132.75 352.50,133.00
             352.50,133.25 355.75,148.25 355.75,148.25
             355.75,148.25 353.25,156.00 353.25,156.00
             353.25,156.00 352.25,161.75 352.25,161.75
             352.25,161.75 355.00,160.75 355.00,160.75
             355.00,160.75 354.50,166.00 354.50,166.00
             354.50,166.00 351.75,173.25 351.75,173.25
             351.75,173.25 345.00,179.25 345.00,179.25
             345.00,179.25 341.75,183.00 341.75,183.00
             341.75,183.00 339.50,190.50 339.50,190.50
             339.50,190.50 338.00,196.50 338.00,196.50
             338.00,196.50 341.00,198.75 341.00,198.75
             341.00,198.75 351.25,199.50 351.25,199.50
             351.25,199.50 355.25,196.75 355.25,196.75
             355.25,196.75 359.25,190.75 359.25,190.75
             359.25,190.75 367.00,179.50 367.00,179.50
             367.00,179.50 371.00,168.50 371.00,168.50
             371.00,168.50 375.25,158.25 375.25,158.25
             375.25,158.25 379.00,146.75 379.00,146.75
             379.00,146.75 384.25,138.75 384.25,138.75
             384.25,138.75 391.25,134.00 391.25,134.00
             391.25,134.00 401.75,130.25 401.75,130.25
             401.75,130.25 414.25,126.00 414.25,126.00
             414.25,126.00 423.50,122.00 423.50,122.00
             423.50,122.00 428.25,121.00 428.25,121.00
             428.25,121.00 427.88,117.88 427.88,117.88
             427.88,117.88 427.50,114.25 427.50,114.25
             427.50,114.25 423.75,113.75 423.75,113.75
             423.75,113.75 422.12,109.12 422.12,109.12
             422.12,109.12 421.25,106.62 421.12,106.50
             421.00,106.38 416.75,104.38 416.75,104.38
             416.75,104.38 416.75,98.25 416.75,98.25
             416.75,98.25 418.50,96.75 418.50,96.50
             418.50,96.25 418.62,91.50 418.62,91.50
             418.62,91.50 419.62,87.00 419.62,87.00
             419.62,87.00 418.12,82.88 418.12,82.88
             418.12,82.88 415.50,76.12 415.38,76.00
             415.25,75.88 416.00,65.62 416.12,64.62
             416.25,63.62 420.12,53.62 420.12,53.62
             420.12,53.62 422.38,49.75 422.38,49.75
             422.38,49.75 423.38,43.62 423.38,43.62
             423.38,43.62 429.62,41.00 429.62,41.00
             429.62,41.00 440.50,42.62 440.50,42.62
             440.50,42.62 450.88,42.50 450.88,42.50
             450.88,42.50 457.00,39.50 457.00,39.50
             457.00,39.50 471.25,42.62 471.25,42.62
             471.25,42.62 478.25,45.12 478.25,45.12
             478.25,45.12 487.25,51.88 487.25,51.88
             487.25,51.88 491.88,62.00 491.88,62.12
             491.88,62.25 493.38,70.38 493.38,70.38
             493.38,70.38 495.25,73.62 495.25,73.62
             495.25,73.62 500.75,79.25 500.75,79.25
             500.75,79.25 500.00,88.50 500.00,88.50
             500.00,88.50 497.00,103.62 497.00,103.62
             497.00,103.62 493.12,112.12 493.12,112.12
             493.12,112.12 486.88,110.12 486.88,110.12
             486.88,110.12 483.88,113.00 483.88,113.00
             483.88,113.00 480.50,114.25 480.50,114.25
             480.50,114.25 480.12,117.88 480.12,117.88
             480.12,117.88 481.00,120.25 481.00,120.25
             481.00,120.25 491.62,124.88 491.62,124.88
             491.62,124.88 509.75,131.12 509.75,131.12
             509.75,131.12 521.25,137.25 521.25,137.25
             521.25,137.25 527.38,144.25 527.38,144.25
             527.38,144.25 535.00,157.38 535.00,157.38
             535.00,157.38 541.88,165.25 541.88,165.25
             541.88,165.25 547.50,173.88 547.50,173.88
             547.50,173.88 553.00,163.38 553.00,163.00
             553.00,162.62 551.88,148.12 552.00,147.25
             552.12,146.38 554.50,133.50 554.50,133.50
             554.50,133.50 562.25,124.75 562.25,124.75
             562.25,124.75 572.88,117.62 573.00,117.50
             573.12,117.38 585.25,112.50 585.25,112.50
             585.25,112.50 595.00,110.62 594.75,110.50
             594.50,110.38 602.75,109.25 602.75,109.25
             602.75,109.25 610.00,109.75 610.00,109.75
             610.00,109.75 615.88,111.50 616.25,112.00
             616.62,112.50 625.75,121.62 625.75,121.62
             625.75,121.62 629.38,128.50 629.38,128.50
             629.38,128.50 633.88,139.50 633.88,139.50
             633.88,139.50 635.00,145.50 635.00,145.50
             635.00,145.50 635.38,150.12 635.38,150.12
             635.38,150.12 638.12,154.62 638.12,154.62
             638.12,154.62 642.12,160.00 642.12,160.00
             642.12,160.00 643.50,167.38 643.50,167.38
             643.50,167.38 642.00,175.25 642.00,175.25
             642.00,175.25 634.88,183.38 634.75,183.38
             634.62,183.38 622.75,194.62 622.75,194.62
             622.75,194.62 615.88,195.12 615.88,195.12
             615.88,195.12 617.00,199.38 617.00,199.38
             617.00,199.38 627.50,204.75 627.50,204.75
             627.50,204.75 634.75,209.50 634.75,209.50
             634.75,209.50 639.00,212.12 639.00,212.12
             639.00,212.12 644.38,215.50 644.38,215.50
             644.38,215.50 649.00,219.88 649.00,219.88M 602.38,100.88" />
</svg>
