<?xml version="1.0" encoding="utf-8" standalone="no"?>
<!DOCTYPE svg PUBLIC "-//W3C//DTD SVG 1.1//EN"
  "http://www.w3.org/Graphics/SVG/1.1/DTD/svg11.dtd">
<!-- Created with matplotlib (http://matplotlib.org/) -->
<svg height="216pt" version="1.1" viewBox="0 0 216 216" width="216pt" xmlns="http://www.w3.org/2000/svg" xmlns:xlink="http://www.w3.org/1999/xlink">
 <defs>
  <style type="text/css">
*{stroke-linecap:butt;stroke-linejoin:round;}
  </style>
 </defs>
 <g id="figure_1">
  <g id="patch_1">
   <path d="M 0 216 
L 216 216 
L 216 0 
L 0 0 
z
" style="fill:none;"/>
  </g>
  <g id="axes_1">
   <g id="LineCollection_1"/>
   <g id="LineCollection_2">
    <path clip-path="url(#p1706aef5e5)" d="M 119.370108 152.292605 
L 120.968001 152.678805 
L 122.5661 153.064935 
L 124.164198 153.450994 
L 125.762297 153.836984 
L 127.36019 154.222904 
L 128.958289 154.608754 
L 130.556387 154.994535 
L 132.154486 155.380245 
L 133.752585 155.765886 
L 135.350684 156.151458 
L 136.948576 156.536959 
L 138.546675 156.922392 
L 140.144774 157.307754 
L 141.742873 157.693047 
L 142.282576 157.822956 
L 143.570654 156.398306 
L 144.858733 154.972406 
L 146.146811 153.546152 
L 147.434889 152.118344 
L 148.722968 150.689878 
L 150.011252 149.260454 
L 150.405112 148.823253 
L 152.025046 148.819054 
L 153.64498 148.814856 
L 155.264914 148.810657 
L 156.885054 148.806459 
L 158.504988 148.80226 
L 160.124922 148.798062 
L 161.745062 148.793863 
L 163.364996 148.789664 
L 164.98493 148.785466 
L 166.60507 148.781267 
L 167.287527 148.779468 
L 168.838866 148.100384 
L 170.39041 147.421083 
L 171.941748 146.741566 
L 173.493086 146.061831 
L 175.04463 145.381879 
L 176.595969 144.70171 
L 176.842543 144.593535 
L 181.874968 147.097259 
L 180.510054 140.34394 
L 182.116599 140.041018 
L 183.723349 139.737751 
L 185.330099 139.434441 
L 186.936644 139.131389 
L 188.543394 138.828294 
L 188.820044 138.775866 
L 189.711172 140.75399 
L 190.602301 142.72997 
L 191.49343 144.704113 
L 192.384764 146.676724 
L 193.275893 148.647207 
L 194.167227 150.615868 
L 195.058356 152.58301 
L 195.277533 153.066132 
L 196.710013 154.164871 
L 198.142493 155.263044 
L 199.575179 156.360653 
L 201.007864 157.457698 
L 202.440344 158.55418 
L 203.872824 159.6501 
L 205.305304 160.745458 
L 206.73799 161.840256 
L 208.170676 162.934494 
L 209.603156 164.028173 
L 211.015974 165.106294 
" style="fill:none;stroke:#000000;stroke-width:5;"/>
    <path clip-path="url(#p1706aef5e5)" d="M 0 153.21569 
L 4.297522 153.055357 
L 6.547385 160.930349 
L 8.141364 160.510445 
L 9.735136 160.090458 
L 11.328909 159.670389 
L 12.922682 159.249939 
L 14.516455 158.829705 
L 16.110434 158.40909 
L 17.384917 158.072896 
L 22.612418 163.892387 
L 23.287459 156.702793 
L 20.160063 155.495048 
L 20.257498 151.801822 
L 25.199904 147.872975 
L 27.150046 151.256407 
L 31.620108 151.343874 
L 29.295058 146.11348 
L 32.062582 136.130464 
L 28.545035 133.778365 
L 21.854979 139.587457 
L 15.644888 136.075555 
L 15.540038 132.777508 
L 13.926489 132.566884 
L 12.312735 132.356541 
L 10.699187 132.145573 
L 9.085432 131.935189 
L 7.471884 131.724481 
L 5.85813 131.513752 
L 4.747412 131.368618 
L 5.167433 125.128406 
L 10.072554 117.97217 
L 7.207388 112.158674 
" style="fill:none;stroke:#000000;stroke-width:5;"/>
    <path clip-path="url(#p1706aef5e5)" d="M 11.63996 112.313072 
L 13.177702 109.980028 
L 17.909995 111.869071 
L 21.548666 119.380004 
L 25.147787 118.514669 
L 23.579146 122.764925 
L 30.450682 118.395106 
L 31.657599 110.124201 
L 32.362097 112.180949 
L 33.982237 112.180949 
L 35.602171 112.180949 
L 37.222311 112.180949 
L 38.842245 112.180949 
L 40.46218 112.180949 
L 42.082114 112.180949 
L 42.727492 112.180949 
L 45.314154 117.804797 
L 53.173842 117.697063 
L 54.606116 116.578617 
L 56.038596 115.459575 
L 57.470869 114.339936 
L 58.903349 113.220005 
L 60.335623 112.09917 
L 61.768103 110.978041 
L 63.128691 109.912214 
L 64.748213 109.857228 
L 66.367941 109.802852 
L 67.987463 109.747863 
L 69.606985 109.693484 
L 71.226508 109.638493 
L 72.846236 109.584111 
L 74.465758 109.529117 
L 76.08528 109.474732 
L 77.705008 109.419735 
L 78.194655 109.403235 
L 79.844458 104.041979 
L 79.7256 106.297192 
L 84.825797 105.828041 
L 86.888617 108.490063 
L 93.9439 106.818551 
L 94.7619 111.692971 
L 101.333716 113.92411 
L 102.060049 106.397557 
L 97.491522 104.792966 
L 100.140189 99.576427 
L 99.037505 97.807437 
L 97.934821 96.03633 
L 96.832137 94.264024 
L 95.729453 92.490208 
L 94.626768 90.714571 
L 93.524084 88.938033 
L 93.374121 88.696109 
L 94.888174 87.833099 
L 96.402434 86.969731 
L 97.916487 86.106003 
L 99.430746 85.241916 
L 100.9448 84.377469 
L 102.459059 83.512661 
L 103.973112 82.647493 
L 105.487372 81.781654 
L 107.001425 80.915762 
L 108.515479 80.049509 
L 110.029738 79.182893 
L 110.565115 78.876267 
L 112.004187 70.630251 
L 119.520895 72.70215 
L 122.436942 62.306139 
L 116.812903 54.873492 
L 113.151572 55.189983 
L 111.763586 53.918076 
L 110.375601 52.644751 
L 108.987616 51.370949 
L 108.467815 50.893706 
" style="fill:none;stroke:#000000;stroke-width:5;"/>
    <path clip-path="url(#p1706aef5e5)" d="M 183.900092 138.841552 
L 188.88761 132.942487 
L 194.685095 133.404421 
L 194.455 131.051707 
L 194.224905 128.695765 
L 193.995016 126.337797 
L 193.764922 123.977189 
L 193.534827 121.61363 
L 193.304938 119.247413 
L 193.102446 117.163182 
L 197.71485 116.342919 
L 200.174826 112.036612 
L 198.777571 110.822323 
L 197.380316 109.606719 
L 195.982855 108.391021 
L 194.585394 107.174616 
L 193.187933 105.957198 
L 193.064955 105.849772 
L 198.060095 103.352316 
L 201.472586 106.362369 
L 203.086752 106.163159 
L 204.701331 105.963625 
L 206.315909 105.764378 
L 207.930075 105.565111 
L 209.544653 105.36552 
L 210.404883 105.259288 
L 208.327437 99.018866 
L 213.052313 92.771115 
L 214.521048 93.792776 
L 215.989989 94.813936 
L 216 94.820895 
" style="fill:none;stroke:#000000;stroke-width:5;"/>
    <path clip-path="url(#p1706aef5e5)" d="M 0 107.674316 
L 0.527426 107.888705 
L 2.090094 108.523688 
L 3.652556 109.158173 
L 5.215018 109.793076 
L 6.77748 110.427177 
L 8.339941 111.061391 
L 9.902403 111.695413 
L 11.464865 112.329243 
L 11.564978 112.369824 
" style="fill:none;stroke:#000000;stroke-width:5;"/>
    <path clip-path="url(#p1706aef5e5)" d="M 216 59.966928 
L 215.746092 59.939641 
L 214.130072 59.765964 
L 212.514258 59.592584 
L 211.139868 59.444856 
L 206.334036 68.654424 
" style="fill:none;stroke:#000000;stroke-width:5;"/>
    <path clip-path="url(#p1706aef5e5)" d="M 113.677623 165.106294 
L 111.134894 164.586116 
L 110.242529 161.310219 
L 111.580046 159.98694 
L 112.917357 158.662842 
L 114.254874 157.337624 
L 115.59239 156.011584 
L 116.929907 154.68472 
L 118.267218 153.357329 
L 119.31758 152.314163 
L 117.710623 152.014738 
L 116.103873 151.715571 
L 114.496916 151.416062 
L 112.890166 151.116511 
L 111.283209 150.816918 
L 109.676459 150.517583 
L 108.069502 150.217906 
L 106.462752 149.918186 
L 104.855795 149.618425 
L 103.249045 149.318621 
L 101.642088 149.018775 
L 100.035338 148.718887 
L 98.428381 148.418956 
L 96.821631 148.118984 
L 95.214674 147.818969 
L 93.607924 147.519211 
L 92.000967 147.219112 
L 90.394217 146.91897 
L 88.78726 146.618785 
L 87.18051 146.318859 
L 85.573553 146.01859 
L 84.794897 145.872944 
L 80.490042 138.435953 
L 76.844984 137.129737 
L 78.007407 129.914913 
L 76.443709 130.536323 
L 74.880011 131.157551 
L 73.316107 131.778293 
L 71.752409 132.399156 
L 70.188506 133.019534 
L 68.624808 133.640032 
L 67.060904 134.260348 
L 66.307379 134.558965 
L 64.687857 134.603045 
L 63.067923 134.646821 
L 61.448401 134.690899 
L 59.828673 134.734975 
L 58.208945 134.779051 
L 56.589217 134.823126 
L 54.969489 134.8672 
L 53.34976 134.910971 
L 51.730032 134.955043 
L 50.527441 134.987644 
L 46.297568 142.655983 
L 44.701941 142.246 
L 43.10652 141.835636 
L 41.511099 141.425193 
L 39.915678 141.014671 
L 38.320258 140.60437 
L 36.724631 140.19399 
L 35.12921 139.783229 
L 33.533789 139.372389 
L 31.938368 138.96177 
L 31.642561 138.885542 
" style="fill:none;stroke:#000000;stroke-width:5;"/>
    <path clip-path="url(#p1706aef5e5)" d="M 122.407484 62.25988 
L 128.737463 69.314904 
L 136.094939 71.12858 
L 139.56758 67.306325 
L 145.807539 70.108448 
L 148.927519 61.827243 
L 153.120108 62.237063 
L 154.597495 52.174903 
L 158.212477 55.226366 
L 161.745062 53.181051 
L 163.283423 53.954795 
L 164.821783 54.728247 
L 166.360144 55.501408 
L 167.898505 56.274278 
L 169.436865 57.046857 
L 170.975226 57.819145 
L 172.492575 58.580809 
L 176.579901 57.91938 
L 183.689978 63.215486 
L 191.062491 63.852415 
L 195.57746 60.677373 
L 197.133536 61.361681 
L 198.689612 62.045448 
L 200.245688 62.729301 
L 201.801764 63.412927 
L 203.35784 64.096326 
L 204.913916 64.779498 
L 205.70246 65.125368 
L 206.677428 71.366653 
L 203.60256 78.785727 
L 204.755713 80.497552 
L 205.908865 82.207963 
L 207.062224 83.917273 
L 208.215582 85.624557 
L 209.368735 87.331055 
L 209.737463 87.87632 
" style="fill:none;stroke:#000000;stroke-width:5;"/>
    <path clip-path="url(#p1706aef5e5)" d="M 8.084921 131.126705 
L 6.32244 122.786177 
" style="fill:none;stroke:#000000;stroke-width:5;"/>
    <path clip-path="url(#p1706aef5e5)" d="M 212.392516 93.19733 
L 209.647444 87.898547 
" style="fill:none;stroke:#000000;stroke-width:5;"/>
    <path clip-path="url(#p1706aef5e5)" d="M 197.264548 154.265381 
L 189.348624 152.17254 
L 189.070532 157.28565 
L 184.213614 157.290131 
L 182.717688 158.192332 
L 181.222174 159.09445 
L 179.726454 159.996189 
L 178.23094 160.897249 
L 176.73522 161.797929 
L 175.2395 162.698529 
L 173.743987 163.59875 
L 172.248267 164.498593 
L 171.237455 165.106294 
" style="fill:none;stroke:#000000;stroke-width:5;"/>
   </g>
  </g>
 </g>
 <defs>
  <clipPath id="p1706aef5e5">
   <rect height="114.212589" width="216" x="0" y="50.893706"/>
  </clipPath>
 </defs>
</svg>
