<?xml version="1.0" encoding="utf-8" standalone="no"?>
<!DOCTYPE svg PUBLIC "-//W3C//DTD SVG 1.1//EN"
  "http://www.w3.org/Graphics/SVG/1.1/DTD/svg11.dtd">
<!-- Created with matplotlib (http://matplotlib.org/) -->
<svg height="216pt" version="1.1" viewBox="0 0 216 216" width="216pt" xmlns="http://www.w3.org/2000/svg" xmlns:xlink="http://www.w3.org/1999/xlink">
 <defs>
  <style type="text/css">
*{stroke-linecap:butt;stroke-linejoin:round;}
  </style>
 </defs>
 <g id="figure_1">
  <g id="patch_1">
   <path d="M 0 216 
L 216 216 
L 216 0 
L 0 0 
z
" style="fill:none;"/>
  </g>
  <g id="axes_1">
   <g id="LineCollection_1">
    <path clip-path="url(#pe7fe18633c)" d="M 151.213273 206.787697 
L 135.267342 183.839299 
L 142.464386 167.18286 
L 130.029486 161.354795 
L 133.933627 151.630834 
L 127.594266 154.163975 
L 115.605061 150.065198 
L 119.1901 149.670927 
L 114.931274 143.815598 
L 121.111459 141.096274 
L 117.835785 135.16736 
L 123.218212 134.349639 
L 111.233127 134.533156 
L 114.013666 131.077557 
L 102.267159 135.742154 
L 97.341664 130.685762 
L 106.362313 131.684039 
L 107.896404 124.981857 
L 97.157768 128.836677 
L 94.413932 123.009884 
L 96.728177 130.744589 
L 91.51092 124.772866 
L 86.809021 136.710295 
L 82.982783 124.615004 
L 86.683552 116.685676 
L 82.716863 124.404881 
L 75.495101 120.974574 
L 79.446808 121.24998 
L 75.413078 119.695759 
L 79.446808 114.30978 
L 71.056499 120.577286 
L 67.459101 113.216056 
L 59.969921 114.677628 
L 56.575894 109.928529 
L 51.218187 113.7624 
L 46.758986 105.414837 
L 42.015139 109.686342 
L 36.940954 104.680659 
L 35.263791 112.852527 
L 25.691079 113.218286 
L 22.703047 100.468957 
L 7.853152 95.294225 
L 29.270499 91.529645 
L 30.476124 86.718845 
L 22.966345 80.734669 
L 16.834101 85.827158 
L 13.089511 77.446919 
L 17.852833 72.923545 
L 17.648338 77.22966 
L 36.447318 79.903439 
L 27.488093 74.923465 
L 30.945041 71.936714 
L 21.761095 74.063911 
L 29.393347 66.763878 
L 6.153892 73.908427 
L 5.885351 60.933303 
L 15.807129 56.948033 
L 17.484666 51.069304 
L 43.75073 44.381382 
L 51.216689 52.441832 
L 52.975874 45.257976 
L 63.899905 48.852477 
L 67.986819 36.440668 
L 73.878987 39.049833 
L 82.104501 33.891175 
L 82.798512 38.677369 
L 89.509036 32.896293 
L 86.642728 42.840599 
L 92.532274 37.497181 
L 108.653337 61.717302 
L 126.696883 47.303889 
L 125.83508 52.50529 
L 130.251959 50.644183 
L 131.889421 55.967752 
L 139.94602 51.079507 
L 143.589486 58.750582 
L 140.743777 50.246226 
L 145.551669 46.372158 
L 150.051694 45.689952 
L 153.572687 53.74306 
L 173.904635 51.513079 
L 163.451019 43.301821 
L 164.509161 9.212303 
" style="fill:none;stroke:#000000;stroke-width:5;"/>
   </g>
   <g id="LineCollection_2"/>
  </g>
 </g>
 <defs>
  <clipPath id="pe7fe18633c">
   <rect height="197.575394" width="216" x="0" y="9.212303"/>
  </clipPath>
 </defs>
</svg>
