<?xml version="1.0" standalone="no"?>
<!DOCTYPE svg PUBLIC "-//W3C//DTD SVG 20010904//EN"
 "http://www.w3.org/TR/2001/REC-SVG-20010904/DTD/svg10.dtd">
<svg version="1.0" xmlns="http://www.w3.org/2000/svg"
 width="225.000000pt" height="225.000000pt" viewBox="0 0 225.000000 225.000000"
 preserveAspectRatio="xMidYMid meet">
<metadata>
Created by potrace 1.13, written by Peter Selinger 2001-2015
</metadata>
<g transform="translate(0.000000,225.000000) scale(0.100000,-0.100000)"
fill="#000000" stroke="none">
<path d="M289 2239 c-14 -5 -31 -21 -38 -35 -15 -34 -16 -1910 0 -1951 14 -38
25 -43 92 -43 l57 0 0 -64 c0 -83 14 -121 50 -136 18 -7 74 -10 158 -8 166 4
170 7 174 122 l3 81 340 0 340 0 3 -81 c4 -115 8 -118 174 -122 84 -2 140 1
158 8 36 15 50 53 50 136 l0 64 58 0 c66 0 77 5 91 43 15 40 15 1902 0 1945
-7 20 -21 34 -41 41 -40 14 -1631 14 -1669 0z m313 -228 c29 -26 33 -35 33
-81 0 -46 -4 -55 -33 -81 -61 -54 -157 -30 -182 46 -36 108 97 192 182 116z
m298 0 c52 -51 52 -111 0 -162 -23 -23 -37 -29 -73 -29 -80 0 -132 70 -107
145 25 76 125 102 180 46z m300 0 c52 -51 52 -111 0 -162 -23 -24 -37 -29 -75
-29 -38 0 -52 5 -75 29 -16 16 -32 40 -36 55 -9 38 3 74 36 107 23 24 37 29
75 29 38 0 52 -5 75 -29z m290 9 c59 -42 60 -135 3 -180 -40 -31 -107 -27
-143 9 -16 16 -32 40 -36 55 -9 38 3 74 36 107 36 36 97 40 140 9z m296 1 c20
-12 37 -34 44 -55 36 -109 -96 -194 -182 -117 -29 26 -33 35 -33 81 0 46 4 55
33 81 39 35 91 39 138 10z m-114 -385 c41 -31 37 -113 -7 -130 -22 -8 -1058
-8 -1080 0 -44 17 -48 99 -7 130 25 19 1069 19 1094 0z m-71 -375 l29 -29 0
-297 0 -297 -29 -29 -29 -29 -447 0 -447 0 -29 29 -29 29 0 297 0 297 29 29
29 29 447 0 447 0 29 -29z"/>
</g>
</svg>
