<?xml version="1.0" standalone="no"?>
<!DOCTYPE svg PUBLIC "-//W3C//DTD SVG 20010904//EN"
 "http://www.w3.org/TR/2001/REC-SVG-20010904/DTD/svg10.dtd">
<svg version="1.0" xmlns="http://www.w3.org/2000/svg"
 width="225.000000pt" height="225.000000pt" viewBox="0 0 225.000000 225.000000"
 preserveAspectRatio="xMidYMid meet">
<metadata>
Created by potrace 1.13, written by Peter Selinger 2001-2015
</metadata>
<g transform="translate(0.000000,225.000000) scale(0.100000,-0.100000)"
fill="#000000" stroke="none">
<path d="M856 2127 c-28 -9 -47 -53 -36 -82 15 -41 38 -49 138 -50 l97 0 2
-30 2 -31 -75 -12 c-390 -62 -685 -358 -759 -762 -12 -65 -7 -234 10 -315 71
-339 332 -615 660 -698 220 -56 462 -28 654 75 511 275 642 942 271 1387 l-49
59 36 36 37 36 25 -24 c38 -34 67 -38 97 -13 53 46 39 79 -84 200 -74 72 -95
87 -121 87 -37 0 -71 -30 -71 -64 0 -14 12 -39 27 -56 l26 -32 -39 -38 -39
-38 -85 49 c-92 54 -231 103 -321 113 -43 6 -58 12 -62 25 -9 37 9 46 90 46
96 1 121 9 134 43 13 33 -5 79 -35 89 -29 10 -500 10 -530 0z m370 -341 c185
-19 385 -135 509 -296 166 -215 204 -505 101 -759 -118 -291 -422 -487 -738
-475 -515 18 -864 524 -702 1014 93 280 356 491 644 517 36 3 66 7 68 8 1 1
15 1 30 0 15 -2 55 -6 88 -9z"/>
<path d="M1080 1530 l-25 -19 0 -249 c0 -231 2 -252 19 -271 18 -20 29 -21
203 -21 170 0 184 1 203 20 26 26 26 72 -1 96 -18 16 -42 20 -152 24 l-132 5
-1 185 c0 102 -4 195 -8 208 -7 22 -42 42 -69 42 -7 0 -23 -9 -37 -20z"/>
</g>
</svg>
