<?xml version="1.0" standalone="no"?>
<!DOCTYPE svg PUBLIC "-//W3C//DTD SVG 20010904//EN"
 "http://www.w3.org/TR/2001/REC-SVG-20010904/DTD/svg10.dtd">
<svg version="1.0" xmlns="http://www.w3.org/2000/svg"
 width="225.000000pt" height="225.000000pt" viewBox="0 0 225.000000 225.000000"
 preserveAspectRatio="xMidYMid meet">
<metadata>
Created by potrace 1.13, written by Peter Selinger 2001-2015
</metadata>
<g transform="translate(0.000000,225.000000) scale(0.100000,-0.100000)"
fill="#000000" stroke="none">
<path d="M1030 2153 c-14 -2 -57 -20 -96 -39 -109 -52 -204 -168 -228 -281 -7
-29 -13 -34 -64 -48 -151 -43 -286 -103 -402 -178 l-64 -42 471 -3 c259 -1
686 -1 949 0 l477 3 -55 37 c-104 69 -254 137 -394 178 l-70 21 -17 55 c-36
117 -120 212 -236 267 -54 26 -77 30 -155 33 -50 1 -102 0 -116 -3z m225 -197
c39 -24 105 -95 105 -116 0 -3 -26 -3 -57 1 -71 8 -386 4 -402 -5 -14 -9 -14
0 0 26 27 51 88 100 147 119 52 17 157 4 207 -25z"/>
<path d="M91 1453 c-45 -23 -71 -60 -78 -110 -5 -38 -3 -40 28 -53 90 -36 126
-91 132 -203 2 -37 2 -69 -1 -71 -2 -3 -14 -1 -25 5 -60 33 -137 -5 -137 -67
0 -44 32 -76 103 -105 31 -12 57 -25 58 -28 1 -3 2 -89 4 -191 2 -159 5 -193
23 -244 66 -183 214 -325 387 -370 85 -22 1001 -22 1084 0 170 45 323 196 386
379 14 39 18 91 20 235 2 102 3 187 4 190 1 3 16 11 34 19 79 32 97 43 112 64
38 54 -3 131 -69 129 -20 -1 -45 -6 -55 -11 -10 -6 -21 -8 -23 -5 -10 10 2
130 17 170 19 50 49 79 100 97 38 14 40 16 39 55 -1 46 -22 84 -61 109 -25 17
-92 18 -1038 21 -947 2 -1012 1 -1044 -15z"/>
</g>
</svg>
