<?xml version="1.0" encoding="utf-8" standalone="no"?>
<!DOCTYPE svg PUBLIC "-//W3C//DTD SVG 1.1//EN"
  "http://www.w3.org/Graphics/SVG/1.1/DTD/svg11.dtd">
<!-- Created with matplotlib (http://matplotlib.org/) -->
<svg height="216pt" version="1.1" viewBox="0 0 216 216" width="216pt" xmlns="http://www.w3.org/2000/svg" xmlns:xlink="http://www.w3.org/1999/xlink">
 <defs>
  <style type="text/css">
*{stroke-linecap:butt;stroke-linejoin:round;}
  </style>
 </defs>
 <g id="figure_1">
  <g id="patch_1">
   <path d="M 0 216 
L 216 216 
L 216 0 
L 0 0 
z
" style="fill:none;"/>
  </g>
  <g id="axes_1">
   <g id="LineCollection_1">
    <path clip-path="url(#pba744f180d)" d="M 4.704428 189.590054 
L 7.888432 181.819341 
L 12.363035 176.13811 
L 23.110912 174.769835 
L 34.291947 170.014979 
L 41.479291 162.030367 
L 49.821041 157.304 
L 54.899612 151.835052 
L 63.649982 137.99622 
L 64.543363 131.715639 
L 60.049513 127.734195 
L 61.376894 124.172765 
L 60.760297 113.675359 
L 69.956936 99.145764 
L 69.575502 92.332069 
L 78.030203 84.231539 
L 81.761665 78.787777 
L 97.159646 71.96914 
L 108.591241 64.425371 
L 119.476246 41.634251 
L 122.431969 30.48193 
L 124.738256 30.700052 
L 129.744052 28.024407 
L 132.719984 28.324999 
L 131.576885 30.384203 
L 133.305066 35.115046 
L 142.080937 41.801351 
L 147.324062 42.879492 
L 153.971793 40.675915 
L 155.955707 41.818723 
L 157.545076 40.177001 
L 163.313861 42.172294 
L 167.30719 40.305797 
L 169.029598 37.2469 
L 170.637852 41.569909 
L 169.816644 40.70921 
L 169.862594 42.261778 
L 171.37967 43.683862 
L 172.765872 43.546226 
L 170.670691 41.65825 
L 174.573323 44.085378 
L 177.725718 42.896116 
L 185.137279 44.324974 
L 195.713865 38.872676 
L 197.085512 34.70264 
L 201.218497 31.703226 
L 203.530919 30.813327 
L 206.171366 31.979399 
L 209.969829 28.170997 
L 213.490546 30.457165 
L 216 29.468763 
" style="fill:none;stroke:#000000;stroke-width:5;"/>
   </g>
   <g id="LineCollection_2">
    <path clip-path="url(#pba744f180d)" d="M 79.353254 189.590054 
L 79.353254 162.631589 
L 95.470077 150.463077 
L 98.794123 150.241908 
L 103.681796 145.898465 
L 112.165005 147.162805 
L 113.925544 142.337726 
L 117.976612 142.958558 
L 128.680343 141.075165 
L 132.818981 138.294205 
L 138.420445 130.02763 
L 146.675949 127.458772 
L 152.667146 122.636404 
L 158.820492 121.543752 
L 159.205896 119.243749 
L 157.283208 117.529416 
L 155.675917 117.985077 
L 157.274427 113.726654 
L 155.44376 112.227897 
L 155.872949 108.10967 
L 160.633597 108.572904 
L 168.709511 105.606301 
L 171.00437 100.867413 
L 179.246763 99.57975 
L 197.25981 100.603739 
L 197.067108 99.341882 
L 195.569399 99.476309 
L 196.296301 96.421222 
L 200.071548 93.033422 
L 194.198594 88.988193 
L 191.680239 84.953931 
L 192.66131 82.630088 
L 189.700775 78.899987 
L 190.769296 73.312392 
L 188.715374 70.50882 
L 189.932811 63.291015 
L 187.725522 57.697133 
L 189.411723 55.642249 
L 186.713897 53.260144 
L 188.452544 50.634544 
L 181.165 44.123892 
L 181.165 44.123892 
" style="fill:none;stroke:#000000;stroke-width:5;"/>
    <path clip-path="url(#pba744f180d)" d="M 81.761396 189.590054 
L 81.645707 189.512882 
L 80.832078 188.970187 
L 80.018448 188.427208 
L 79.362035 187.989116 
" style="fill:none;stroke:#000000;stroke-width:5;"/>
    <path clip-path="url(#pba744f180d)" d="M 8.281775 181.295156 
L 9.227722 181.295292 
L 10.173789 181.295428 
L 11.119736 181.295428 
L 12.065683 181.295428 
L 13.01163 181.295564 
L 13.957697 181.2957 
L 14.903644 181.2957 
L 15.849591 181.2957 
L 16.795658 181.2957 
L 17.741605 181.295836 
L 18.687552 181.295971 
L 19.633619 181.295971 
L 20.579566 181.295971 
L 21.525513 181.296107 
L 22.47158 181.296243 
L 23.417527 181.296243 
L 24.363474 181.296243 
L 25.309541 181.296379 
L 26.255488 181.296515 
L 27.201435 181.296515 
L 28.147502 181.296515 
L 29.093449 181.29665 
L 30.039396 181.296786 
L 30.985343 181.296786 
L 31.93141 181.296786 
L 32.877357 181.296922 
L 33.823424 181.297058 
L 34.769371 181.297058 
L 35.715318 181.297058 
L 36.661265 181.297194 
L 37.607332 181.29733 
L 38.553279 181.29733 
L 39.499226 181.29733 
L 40.445293 181.297465 
L 41.39124 181.297601 
L 42.337187 181.297601 
L 43.283254 181.297601 
L 44.229201 181.297601 
L 45.175148 181.297737 
L 46.121215 181.297873 
L 47.067162 181.297873 
L 48.013109 181.297873 
L 48.959176 181.298009 
L 49.905123 181.298144 
L 50.85107 181.298144 
L 51.797137 181.298144 
L 52.743084 181.29828 
L 53.689031 181.298416 
L 54.634978 181.298416 
L 55.581045 181.298416 
L 56.526992 181.298552 
L 57.473059 181.298688 
L 58.419006 181.298688 
L 59.364953 181.298688 
L 60.3109 181.298823 
L 61.256967 181.298959 
L 62.202914 181.298959 
L 63.148861 181.298959 
L 64.094928 181.299095 
L 65.040875 181.299231 
L 65.986822 181.299231 
L 66.932889 181.299231 
L 67.878836 181.299367 
L 68.824783 181.299503 
L 69.77085 181.299503 
L 70.716797 181.299503 
L 71.662744 181.299503 
L 72.608811 181.299638 
L 73.554758 181.299774 
L 74.500705 181.299774 
L 75.446772 181.299774 
L 76.392719 181.29991 
L 77.338666 181.300046 
L 78.284613 181.300046 
L 79.23068 181.300046 
L 79.357704 181.300046 
" style="fill:none;stroke:#000000;stroke-width:5;"/>
    <path clip-path="url(#pba744f180d)" d="M 170.045312 40.50177 
L 169.537215 39.428478 
" style="fill:none;stroke:#000000;stroke-width:5;"/>
    <path clip-path="url(#pba744f180d)" d="M 131.715336 29.492505 
L 130.931418 28.049359 
" style="fill:none;stroke:#000000;stroke-width:5;"/>
   </g>
  </g>
 </g>
 <defs>
  <clipPath id="pba744f180d">
   <rect height="163.180108" width="216" x="0" y="26.409946"/>
  </clipPath>
 </defs>
</svg>
