<?xml version="1.0" standalone="no"?>
<!DOCTYPE svg PUBLIC "-//W3C//DTD SVG 20010904//EN"
 "http://www.w3.org/TR/2001/REC-SVG-20010904/DTD/svg10.dtd">
<svg version="1.0" xmlns="http://www.w3.org/2000/svg"
 width="281.000000pt" height="281.000000pt" viewBox="0 0 281.000000 281.000000"
 preserveAspectRatio="xMidYMid meet">
<metadata>
Created by potrace 1.13, written by Peter Selinger 2001-2015
</metadata>
<g transform="translate(0.000000,281.000000) scale(0.100000,-0.100000)"
fill="#000000" stroke="none">
<path d="M1333 2799 c-18 -5 -33 -14 -33 -19 0 -6 -6 -10 -14 -10 -24 0 -77
-64 -89 -107 -6 -24 -15 -43 -19 -43 -11 0 -10 -56 1 -78 5 -9 17 -38 26 -65
9 -26 20 -45 25 -42 5 3 11 -3 15 -12 17 -52 152 -89 230 -63 66 22 131 85
141 136 3 18 10 32 14 29 4 -3 8 22 8 55 0 33 -4 58 -8 55 -4 -3 -11 10 -14
29 -4 19 -13 39 -21 46 -8 7 -12 17 -8 24 3 6 3 8 -1 4 -4 -3 -17 1 -28 10
-11 9 -29 25 -40 35 -12 9 -21 17 -22 17 -38 7 -140 7 -163 -1z"/>
<path d="M503 2599 c-13 -5 -23 -6 -23 -3 0 3 -14 -6 -31 -20 -17 -14 -35 -26
-40 -26 -5 0 -9 -7 -9 -15 0 -9 -6 -18 -14 -21 -32 -12 -47 -121 -26 -194 20
-69 102 -130 175 -130 12 0 27 -6 34 -12 11 -10 13 -10 7 0 -5 8 1 12 18 13
30 2 33 2 67 17 15 6 35 22 46 36 11 14 22 23 25 21 9 -9 38 96 38 134 -1 20
-7 52 -14 71 -14 41 -63 100 -83 100 -7 0 -13 4 -13 9 0 21 -117 35 -157 20z"/>
<path d="M2186 2599 c-17 -5 -34 -15 -39 -24 -4 -8 -12 -13 -17 -10 -14 9 -67
-67 -80 -114 -13 -49 -6 -120 16 -162 23 -45 83 -88 133 -95 25 -4 52 -12 60
-18 11 -8 13 -8 7 2 -5 8 1 12 18 12 42 0 100 28 121 59 10 16 22 28 26 26 11
-7 29 70 29 123 0 58 -11 93 -40 124 -11 12 -20 25 -20 30 0 4 -7 8 -15 8 -7
0 -18 7 -23 15 -14 25 -121 40 -176 24z"/>
<path d="M1010 2254 c-25 -9 -51 -25 -58 -35 -7 -11 -17 -17 -22 -14 -5 3 -16
-8 -25 -25 -8 -16 -19 -30 -24 -30 -5 0 -14 -21 -22 -47 -10 -36 -13 -154 -13
-498 0 -247 2 -458 4 -468 2 -11 19 -26 39 -34 20 -9 44 -20 55 -25 12 -7 16
-6 11 1 -3 6 2 11 12 11 39 0 71 24 82 61 7 24 11 180 11 447 0 226 3 417 6
426 5 13 28 22 36 14 2 -2 5 -445 8 -985 l5 -983 23 -15 c12 -9 20 -20 17 -25
-9 -14 74 -32 114 -25 19 4 49 20 66 36 l30 30 3 559 c2 531 3 560 21 569 13
7 23 6 34 -2 15 -11 17 -69 19 -570 l3 -559 22 -18 c12 -9 20 -20 17 -23 -10
-10 55 -25 100 -22 37 2 52 9 78 36 l33 34 5 980 c3 539 6 981 8 983 8 8 31
-1 36 -14 3 -9 6 -205 6 -435 0 -290 3 -427 11 -442 15 -28 50 -56 71 -57 9 0
19 -6 21 -12 4 -10 6 -10 6 0 1 6 10 12 21 12 38 0 67 22 79 59 17 51 8 912
-9 960 -14 38 -32 61 -85 108 -53 47 -60 48 -445 50 -313 2 -371 0 -410 -13z"/>
<path d="M201 2098 c-60 -17 -135 -93 -150 -153 -15 -61 -17 -865 -2 -893 27
-51 120 -63 153 -20 10 13 22 28 27 34 6 7 11 186 13 418 3 342 5 408 18 416
8 5 17 7 22 4 4 -2 6 -409 6 -903 -2 -911 0 -961 34 -961 5 0 7 -4 4 -9 -7
-10 35 -24 79 -26 66 -3 115 40 115 100 0 14 4 24 8 21 10 -6 9 30 -1 40 -10
10 -9 26 1 20 10 -6 9 30 -1 40 -10 10 -9 26 1 20 10 -6 9 30 -1 40 -10 10 -9
26 1 20 10 -6 9 30 -1 40 -10 10 -9 26 1 20 10 -6 9 30 -1 40 -10 10 -9 26 1
20 10 -6 9 30 -1 40 -10 10 -9 26 1 20 10 -6 9 30 -1 40 -10 10 -9 26 1 20 10
-6 9 30 -1 40 -10 10 -9 26 1 20 10 -6 9 30 -1 40 -10 10 -9 26 1 20 10 -6 9
30 -1 40 -10 10 -9 26 1 20 10 -6 9 30 -1 40 -10 10 -9 26 1 20 10 -6 9 30 -1
40 -10 10 -9 26 1 20 10 -6 9 30 -1 40 -10 10 -9 26 1 20 10 -6 9 30 -1 40
-10 10 -9 26 1 20 10 -6 9 30 -1 40 -10 10 -9 26 1 20 11 -6 9 25 -2 43 -5 8
-1 20 12 34 17 17 23 18 36 7 14 -11 16 -72 16 -512 0 -558 0 -556 65 -584 20
-8 48 -13 63 -10 15 2 32 5 39 5 18 1 63 53 63 73 0 9 4 20 10 23 6 4 10 163
10 443 l0 437 -32 18 c-33 18 -68 66 -68 93 0 9 -4 13 -9 9 -19 -11 -23 112
-19 554 l4 452 -241 -2 c-132 -1 -255 -6 -274 -11z"/>
<path d="M2089 2073 c4 -21 7 -241 7 -489 l-1 -451 -29 -55 c-19 -36 -40 -61
-62 -73 l-34 -18 0 -433 c0 -278 4 -435 10 -439 6 -3 10 -16 10 -28 1 -27 30
-64 62 -76 33 -12 101 -4 114 14 6 8 13 12 16 9 3 -2 13 11 22 30 14 30 16 93
16 539 0 459 1 505 16 511 19 7 51 -17 51 -39 0 -8 -3 -12 -6 -10 -9 5 -6
-936 3 -960 20 -55 40 -84 65 -91 41 -12 84 -12 106 0 11 5 24 9 28 8 5 -1 6
2 2 8 -3 5 -2 10 3 10 29 0 32 77 32 955 0 842 1 892 18 892 9 0 20 -5 24 -11
4 -6 7 -188 8 -404 0 -375 1 -394 20 -414 11 -12 17 -25 14 -29 -5 -9 58 -29
78 -25 43 9 67 19 62 27 -3 5 -1 9 5 9 21 0 24 60 22 455 -1 333 -4 420 -17
464 -8 29 -18 50 -21 47 -4 -3 -14 8 -24 24 -11 17 -25 30 -33 30 -8 0 -19 6
-23 13 -17 29 -75 36 -321 37 l-249 1 6 -38z"/>
</g>
</svg>
